<svg xmlns="http://www.w3.org/2000/svg" viewBox="0 0 901.43 872.13"><defs><style>.cls-1{fill:#fff;}.cls-2{fill:#1db88f;}.cls-3{fill:#14785d;}</style></defs><g id="Layer_2" data-name="Layer 2"><g id="Logo"><path class="cls-1" d="M166.23,660c-101.54,0-162-55.46-162-159.34V160.9C4.24,49.21,72.5,0,173.26,0s165.8,49.21,165.8,160.9V496c0,47.64-4.68,89-49.2,111.69l62.48,7.81V660ZM246.9,175c0-51.55-14.28-96.07-74.42-96.07-56.24,0-76.86,40.61-76.86,96.07V486.6c0,55.46,20.62,94.51,76.86,94.51,60.14,0,74.42-43.74,74.42-96.07Z"/><path class="cls-1" d="M810.82,660C803,639.69,803,583.46,803,542.06V453c0-59.36-31.24-71.08-64-71.08H657.73V660H566.35V13.28h200c110.91,0,130.85,77.42,130.85,156.31v45.52c0,52.33-7.47,110.59-87.92,127,83.57,11.71,85.92,75.85,85.92,133.65v92.86c0,35.92.78,75,6.25,91.38ZM805,178.86c0-62.48-14.84-88.69-64.83-88.69H657.73V295.05h82.8c47.64,0,64.48-15.3,64.48-65.29Z"/><path class="cls-1" d="M23.4,726.42H54L77.37,870.08H54.8l-4.11-28.53V842H25l-4.11,28.12H0ZM48,822.47,38,751.46h-.41l-9.85,71Z"/><path class="cls-1" d="M125.19,726.42h22.57V849.56h37.15v20.52H125.19Z"/><path class="cls-1" d="M236.83,726.42H259.4V849.56h37.15v20.52H236.83Z"/><path class="cls-1" d="M356.68,726.42h22.58V870.08H356.68Z"/><path class="cls-1" d="M466.89,726.42h30.57l23.4,143.66H498.29l-4.11-28.53V842H468.53l-4.11,28.12H443.49Zm24.62,96.05-10.05-71h-.41l-9.85,71Z"/><path class="cls-1" d="M581,726.42h28.32l22,86h.41v-86h20.11V870.08H628.6L601.51,765.21h-.41V870.08H581Z"/><path class="cls-1" d="M716.75,862.9q-8.52-9.24-8.52-26.07V759.67q0-16.83,8.52-26.07t24.73-9.23q16.2,0,24.73,9.23t8.51,26.07v15.19H753.38V758.23q0-13.34-11.29-13.34T730.8,758.23v80.25q0,13.13,11.29,13.13t11.29-13.13v-22h21.34v20.31q0,16.83-8.51,26.07t-24.73,9.23Q725.26,872.13,716.75,862.9Z"/><path class="cls-1" d="M837.52,726.42h61.57v20.52h-39v38h31v20.52h-31v44.13h39v20.52H837.52Z"/><path class="cls-2" d="M587,233.23a334.11,334.11,0,0,1-42.58-22.6c-31-19.65-36.51-31.92-37.15-33.65V13H427.6V177.61c0,19.48,7.55,38.55,22.44,56.77q1.89,2.33,3.94,4.64c11,12.27,25.65,24.47,43.68,36.26a391.3,391.3,0,0,0,34,19.74v72.65a391.3,391.3,0,0,0-34,19.74c-18,11.79-32.72,22-43.68,34.26q-2.06,2.31-3.94,4.64c14.88,18.22,22.44,37.29,22.44,56.77V660h34.79V483.71c.64-1.74,6.13-14,37.15-33.65A334.11,334.11,0,0,1,587,427.46l24.34-10.19V269.93l.09-26.47Z"/><path class="cls-3" d="M450,426.31c-1.27-1.55-2.57-3.1-4-4.64-10.95-12.27-25.65-22.47-43.68-34.26a391.3,391.3,0,0,0-34-19.74V295a391.3,391.3,0,0,0,34-19.74c18-11.79,32.73-24,43.68-36.26,1.38-1.54,2.68-3.09,4-4.64-14.89-18.22-22.44-37.29-22.44-56.77V13H392.8V177c-.64,1.73-6.13,14-37.14,33.65a334.61,334.61,0,0,1-42.59,22.6l-24.43,10.23.09,26.47V417.27l24.34,10.19a334.61,334.61,0,0,1,42.59,22.6c31,19.65,36.5,31.91,37.14,33.65V660h79.68V483.08C472.48,463.6,464.92,444.53,450,426.31Z"/></g></g></svg>