<svg xmlns="http://www.w3.org/2000/svg" viewBox="0 0 322.79 647"><defs><style>.cls-1{fill:#1db88f;}.cls-2{fill:#14785d;}</style></defs><g id="Layer_2" data-name="Layer 2"><g id="Logo"><path class="cls-1" d="M298.35,220.23a334.86,334.86,0,0,1-42.58-22.6c-31-19.65-36.5-31.92-37.14-33.65V0H139V164.61c0,19.48,7.56,38.55,22.44,56.77,1.27,1.55,2.57,3.1,4,4.64C176.29,238.29,191,250.49,209,262.28A391.3,391.3,0,0,0,243,282v72.65a391.3,391.3,0,0,0-34,19.74c-18,11.79-32.73,22-43.68,34.26-1.38,1.54-2.68,3.09-4,4.64,14.88,18.22,22.44,37.29,22.44,56.77V647h34.8V470.71c.64-1.74,6.13-14,37.14-33.65a334.86,334.86,0,0,1,42.58-22.6l24.35-10.19V256.93l.09-26.47Z"/><path class="cls-2" d="M161.39,413.31c-1.27-1.55-2.57-3.1-3.94-4.64-11-12.27-25.65-22.47-43.68-34.26-12-7.88-24-14.58-34-19.74V282c10-5.16,22-11.86,34-19.74,18-11.79,32.72-24,43.68-36.26,1.37-1.54,2.67-3.09,3.94-4.64C146.51,203.16,139,184.09,139,164.61V0H104.16V164c-.64,1.73-6.13,14-37.15,33.65a334.86,334.86,0,0,1-42.58,22.6L0,230.46l.09,26.47V404.27l24.34,10.19A334.86,334.86,0,0,1,67,437.06c31,19.65,36.51,31.91,37.15,33.65V647h79.67V470.08C183.83,450.6,176.27,431.53,161.39,413.31Z"/></g></g></svg>