<svg xmlns="http://www.w3.org/2000/svg" viewBox="0 0 897.19 660"><defs><style>.cls-1{fill:#1db88f;}.cls-2{fill:#14785d;}</style></defs><g id="Layer_2" data-name="Layer 2"><g id="Logo"><path d="M162,660C60.46,660,0,604.54,0,500.66V160.9C0,49.21,68.27,0,169,0S334.83,49.21,334.83,160.9V496c0,47.64-4.69,89-49.21,111.69l62.49,7.81V660Zm80.67-485c0-51.55-14.27-96.07-74.42-96.07C112,78.89,91.38,119.5,91.38,175V486.6c0,55.46,20.63,94.51,76.86,94.51,60.15,0,74.42-43.74,74.42-96.07Z"/><path d="M806.59,660c-7.81-20.31-7.81-76.54-7.81-117.94V453c0-59.36-31.25-71.08-64-71.08H653.5V660H562.11V13.28h200C873,13.28,892.94,90.7,892.94,169.59v45.52c0,52.33-7.47,110.59-87.91,127,83.57,11.71,85.91,75.85,85.91,133.65v92.86c0,35.92.78,75,6.25,91.38Zm-5.81-481.14c0-62.48-14.84-88.69-64.83-88.69H653.5V295.05h82.79c47.65,0,64.49-15.3,64.49-65.29Z"/><path class="cls-1" d="M582.76,233.23a334.86,334.86,0,0,1-42.58-22.6C509.16,191,503.68,178.71,503,177V13H423.36V177.61c0,19.48,7.56,38.55,22.44,56.77,1.27,1.55,2.57,3.1,3.94,4.64,11,12.27,25.66,24.47,43.69,36.26a392.74,392.74,0,0,0,34,19.74v72.65a392.74,392.74,0,0,0-34,19.74c-18,11.79-32.73,22-43.69,34.26-1.37,1.54-2.67,3.09-3.94,4.64,14.88,18.22,22.44,37.29,22.44,56.77V660H503V483.71c.65-1.74,6.13-14,37.15-33.65a334.86,334.86,0,0,1,42.58-22.6l24.35-10.19V269.93l.08-26.47Z"/><path class="cls-2" d="M445.8,426.31c-1.27-1.55-2.57-3.1-3.94-4.64-11-12.27-25.66-22.47-43.68-34.26-12.05-7.88-24.05-14.58-34-19.74V295c10-5.16,22-11.86,34-19.74,18-11.79,32.72-24,43.68-36.26,1.37-1.54,2.67-3.09,3.94-4.64-14.88-18.22-22.44-37.29-22.44-56.77V13H388.57V177c-.65,1.73-6.13,14-37.15,33.65a334.86,334.86,0,0,1-42.58,22.6l-24.43,10.23.09,26.47V417.27l24.34,10.19a334.86,334.86,0,0,1,42.58,22.6c31,19.65,36.5,31.91,37.15,33.65V660h79.67V483.08C468.24,463.6,460.68,444.53,445.8,426.31Z"/></g></g></svg>